<svg xmlns="http://www.w3.org/2000/svg" viewBox="0 0 1600 360" fill="none">
  <defs>
    <linearGradient id="fade" x1="0" y1="0" x2="0" y2="1">
      <stop stop-color="#84C9F1" stop-opacity="0"/>
      <stop offset="1" stop-color="#84C9F1" stop-opacity=".35"/>
    </linearGradient>
  </defs>
  <path d="M0 360 800 0 1600 360" fill="url(#fade)" opacity=".14"/>
  <g stroke="#1685DE" stroke-opacity=".16" stroke-width="1">
    <path d="M800 0 0 360M800 0 200 360M800 0 400 360M800 0 600 360M800 0 1000 360M800 0 1200 360M800 0 1400 360M800 0 1600 360"/>
    <path d="M0 320h1600M0 250h1600M0 190h1600M0 138h1600M0 94h1600M0 58h1600"/>
  </g>
  <path d="M0 0h1600" stroke="#1685DE" stroke-opacity=".12"/>
</svg>
